<svg width="512" height="512" viewBox="0 0 512 512" fill="none" xmlns="http://www.w3.org/2000/svg">
  <rect width="512" height="512" rx="58" fill="#F8FBFF"/>
  <path d="M256 34L448 145V367L256 478L64 367V145L256 34Z" fill="#0F7BEB"/>
  <path d="M256 76L411 166V346L256 436L101 346V166L256 76Z" fill="#075EC8"/>
  <path d="M256 118L374 186V326L256 394L138 326V186L256 118Z" fill="#084FA8"/>
  <path d="M266 128C286 131 294 145 290 165L254 345C253 351 257 356 263 356H328C344 356 353 369 350 383C347 397 336 407 320 407H226C202 407 188 390 193 367L234 164C239 140 248 125 266 128Z" fill="white"/>
  <path d="M210 331C243 329 283 337 337 359C348 364 352 377 346 388C340 399 328 404 317 399C272 380 237 373 208 374C193 375 183 365 182 351C181 338 193 332 210 331Z" fill="white"/>
</svg>
